# xmcd
#
# Track frame offsets: 
#        150
#        21297
#        42157
#        65520
#        81732
#        102967
#        115800
#        130125
#        151027
#        172790
#        209122
#        232765
#        249810
#
# Disc length: 3693 seconds
#
# Revision: 2
# Processed by: cddbd v1.5.1PL2 Copyright (c) Steve Scherf et al.
# Submitted via: ExactAudioCopy v0.95b3
#
DISCID=a20e6b0d
DTITLE=Gary P. Nunn - Home with the Armadillo
DYEAR=1984
DGENRE=Country
TTITLE0=The Nights Never Get Lonly
TTITLE1=The Last Thin I Needed, The First Thing This Morning
TTITLE2=Tennessee Road
TTITLE3=Born Yesterday
TTITLE4=Give Me Some Money
TTITLE5=Austin Pickers
TTITLE6=Kara Lee
TTITLE7=Public Domain
TTITLE8=What I Like About Texas
TTITLE9=Come and Get It (While it's Hot)
TTITLE10=When the Night Comes
TTITLE11=Since You've Been Gone
TTITLE12=London Homesick Blues (Home with the Armadillo)
EXTD=Recorded live at Austin City Limits
EXTT0=
EXTT1=
EXTT2=
EXTT3=
EXTT4=
EXTT5=
EXTT6=
EXTT7=
EXTT8=
EXTT9=
EXTT10=
EXTT11=
EXTT12=
PLAYORDER=
